<svg version="1.1" id="Layer_1" xmlns="http://www.w3.org/2000/svg" xmlns:xlink="http://www.w3.org/1999/xlink" x="0px" y="0px"
	 width="100%" viewBox="0 0 250 250" enable-background="new 0 0 250 250" xml:space="preserve">
<path fill="#000000" opacity="0.000000" stroke="none"
	d="
M147.000000,251.000000
	C98.000000,251.000000 49.500008,251.000000 1.000006,251.000000
	C1.000004,167.666672 1.000004,84.333351 1.000002,1.000018
	C84.333321,1.000012 167.666641,1.000012 250.999969,1.000006
	C250.999969,84.333313 250.999969,167.666626 250.999985,250.999969
	C216.500000,251.000000 182.000000,251.000000 147.000000,251.000000
M231.002701,159.466522
	C236.904465,145.176117 239.829956,130.224197 239.933716,114.839218
	C240.150528,82.689056 239.999741,50.536427 239.999939,18.384811
	C239.999939,16.433264 239.999908,14.481717 239.999908,12.326969
	C163.782410,12.326969 88.101410,12.326969 12.385704,12.326969
	C12.385704,88.335617 12.385704,164.016785 12.385704,239.999924
	C14.751270,239.999924 16.732841,239.999939 18.714415,239.999939
	C50.366264,239.999832 82.020493,240.213165 113.668442,239.861877
	C122.489700,239.763962 131.411209,238.596848 140.081131,236.881302
	C164.821014,231.985886 185.728058,219.756317 203.454865,202.005692
	C215.455368,189.989059 224.341873,175.865189 231.002701,159.466522
z"/>
<path fill="#0C00CC" opacity="1.000000" stroke="none"
	d="
M230.950897,159.853699
	C224.341873,175.865189 215.455368,189.989059 203.454865,202.005692
	C185.728058,219.756317 164.821014,231.985886 140.081131,236.881302
	C131.411209,238.596848 122.489700,239.763962 113.668442,239.861877
	C82.020493,240.213165 50.366264,239.999832 18.714415,239.999939
	C16.732841,239.999939 14.751270,239.999924 12.385704,239.999924
	C12.385704,164.016785 12.385704,88.335617 12.385704,12.326969
	C88.101410,12.326969 163.782410,12.326969 239.999908,12.326969
	C239.999908,14.481717 239.999939,16.433264 239.999939,18.384811
	C239.999741,50.536427 240.150528,82.689056 239.933716,114.839218
	C239.829956,130.224197 236.904465,145.176117 230.950897,159.853699
M127.392120,40.994938
	C98.939262,40.183140 75.527275,50.559624 57.909988,73.012070
	C29.098452,109.731102 36.991528,163.763428 74.876198,190.740097
	C116.084709,220.083557 174.435715,205.634705 197.010376,160.497253
	C223.359741,107.812347 187.552399,45.494480 127.392120,40.994938
z"/>
<path fill="#FCFCFE" opacity="1.000000" stroke="none"
	d="
M127.871704,41.000153
	C187.552399,45.494480 223.359741,107.812347 197.010376,160.497253
	C174.435715,205.634705 116.084709,220.083557 74.876198,190.740097
	C36.991528,163.763428 29.098452,109.731102 57.909988,73.012070
	C75.527275,50.559624 98.939262,40.183140 127.871704,41.000153
M175.437820,123.338539
	C177.722839,114.769157 176.632080,106.623146 170.740005,99.964592
	C166.256027,94.897301 160.781250,90.701805 155.706070,86.164558
	C152.957031,83.706886 150.121689,81.345734 146.817245,78.504158
	C146.100067,82.293938 145.530441,85.204285 145.000473,88.121841
	C142.774338,100.377121 140.612244,112.644318 138.321213,124.887413
	C137.023407,131.822693 133.021790,136.479416 126.192719,138.634949
	C117.533493,141.368164 108.892899,144.160812 100.252716,146.953934
	C94.255447,148.892700 88.272423,150.875488 81.706047,153.027710
	C89.094376,159.566177 95.631104,165.713776 102.551682,171.393661
	C113.994644,180.785156 127.283592,179.946945 137.725525,169.173035
	C143.613480,163.097885 149.251053,156.749405 154.625519,150.214890
	C161.653778,141.669617 168.310349,132.818649 175.437820,123.338539
M94.254112,93.757011
	C87.215897,102.126236 79.823235,110.229080 73.263504,118.957886
	C68.857193,124.821220 68.814400,131.829025 71.280540,139.050842
	C87.591522,133.706818 103.600670,128.541382 119.517570,123.105812
	C120.892021,122.636436 122.261627,120.510468 122.600945,118.932053
	C124.205902,111.466072 125.491669,103.929916 126.815262,96.405418
	C128.356522,87.643471 129.818893,78.867645 131.346588,69.915695
	C122.830246,68.390892 115.693352,70.508110 110.001801,76.163452
	C104.596275,81.534592 99.813026,87.531975 94.254112,93.757011
z"/>
<path fill="#0D01CC" opacity="1.000000" stroke="none"
	d="
M175.282318,123.718872
	C168.310349,132.818649 161.653778,141.669617 154.625519,150.214890
	C149.251053,156.749405 143.613480,163.097885 137.725525,169.173035
	C127.283592,179.946945 113.994644,180.785156 102.551682,171.393661
	C95.631104,165.713776 89.094376,159.566177 81.706047,153.027710
	C88.272423,150.875488 94.255447,148.892700 100.252716,146.953934
	C108.892899,144.160812 117.533493,141.368164 126.192719,138.634949
	C133.021790,136.479416 137.023407,131.822693 138.321213,124.887413
	C140.612244,112.644318 142.774338,100.377121 145.000473,88.121841
	C145.530441,85.204285 146.100067,82.293938 146.817245,78.504158
	C150.121689,81.345734 152.957031,83.706886 155.706070,86.164558
	C160.781250,90.701805 166.256027,94.897301 170.740005,99.964592
	C176.632080,106.623146 177.722839,114.769157 175.282318,123.718872
z"/>
<path fill="#0D01CC" opacity="1.000000" stroke="none"
	d="
M94.505127,93.505493
	C99.813026,87.531975 104.596275,81.534592 110.001801,76.163452
	C115.693352,70.508110 122.830246,68.390892 131.346588,69.915695
	C129.818893,78.867645 128.356522,87.643471 126.815262,96.405418
	C125.491669,103.929916 124.205902,111.466072 122.600945,118.932053
	C122.261627,120.510468 120.892021,122.636436 119.517570,123.105812
	C103.600670,128.541382 87.591522,133.706818 71.280540,139.050842
	C68.814400,131.829025 68.857193,124.821220 73.263504,118.957886
	C79.823235,110.229080 87.215897,102.126236 94.505127,93.505493
z"/>
</svg>